# Blender v2.93.6 OBJ File: ''
# www.blender.org
mtllib AfterburnerMesh.mtl
o Circle
v 0.000000 1.000000 0.012218
v 0.195090 0.980785 0.012218
v 0.382683 0.923880 0.012218
v 0.555570 0.831470 0.012218
v 0.707107 0.707107 0.012218
v 0.831470 0.555570 0.012218
v 0.923879 0.382683 0.012218
v 0.980785 0.195090 0.012218
v 1.000000 -0.000000 0.012218
v 0.980785 -0.195090 0.012218
v 0.923880 -0.382683 0.012218
v 0.831470 -0.555570 0.012218
v 0.707107 -0.707107 0.012218
v 0.555570 -0.831470 0.012218
v 0.382684 -0.923880 0.012218
v 0.195090 -0.980785 0.012218
v -0.000000 -1.000000 0.012218
v -0.195090 -0.980785 0.012218
v -0.382683 -0.923880 0.012218
v -0.555570 -0.831470 0.012218
v -0.707107 -0.707107 0.012218
v -0.831469 -0.555570 0.012218
v -0.923879 -0.382684 0.012218
v -0.980785 -0.195090 0.012218
v -1.000000 0.000000 0.012218
v -0.980785 0.195090 0.012218
v -0.923879 0.382684 0.012218
v -0.831470 0.555570 0.012218
v -0.707107 0.707107 0.012218
v -0.555570 0.831470 0.012218
v -0.382683 0.923880 0.012218
v -0.195090 0.980785 0.012218
v 0.000000 0.312794 -22.999369
v 0.061023 0.306784 -22.999369
v 0.119701 0.288984 -22.999369
v 0.173779 0.260079 -22.999369
v 0.221179 0.221179 -22.999369
v 0.260079 0.173779 -22.999369
v 0.288984 0.119701 -22.999369
v 0.306784 0.061023 -22.999369
v 0.312795 -0.000000 -22.999369
v 0.306784 -0.061023 -22.999369
v 0.288984 -0.119701 -22.999369
v 0.260079 -0.173779 -22.999369
v 0.221179 -0.221179 -22.999369
v 0.173779 -0.260079 -22.999369
v 0.119701 -0.288985 -22.999369
v 0.061023 -0.306784 -22.999369
v -0.000000 -0.312795 -22.999369
v -0.061023 -0.306784 -22.999369
v -0.119701 -0.288985 -22.999369
v -0.173779 -0.260079 -22.999369
v -0.221179 -0.221179 -22.999369
v -0.260079 -0.173779 -22.999369
v -0.288984 -0.119701 -22.999369
v -0.306784 -0.061023 -22.999369
v -0.312795 -0.000000 -22.999369
v -0.306784 0.061023 -22.999369
v -0.288984 0.119701 -22.999369
v -0.260079 0.173779 -22.999369
v -0.221179 0.221179 -22.999369
v -0.173779 0.260079 -22.999369
v -0.119701 0.288985 -22.999369
v -0.061023 0.306784 -22.999369
v -0.000000 -1.000000 -4.640898
v -0.195090 -0.980785 -4.640897
v 0.555570 0.831470 -4.640898
v 0.707107 0.707107 -4.640897
v -0.382683 0.923880 -4.640898
v -0.195090 0.980785 -4.640897
v -0.382683 -0.923880 -4.640897
v 0.831470 0.555570 -4.640897
v 0.000000 1.000000 -4.640897
v -0.555570 -0.831470 -4.640897
v 0.923879 0.382683 -4.640897
v -0.707107 -0.707107 -4.640897
v 0.980785 0.195090 -4.640897
v -0.831469 -0.555570 -4.640897
v 1.000000 -0.000000 -4.640897
v -0.923879 -0.382684 -4.640897
v 0.980785 -0.195090 -4.640897
v -0.980785 -0.195090 -4.640897
v 0.923880 -0.382683 -4.640897
v -1.000000 0.000000 -4.640897
v 0.831470 -0.555570 -4.640897
v -0.980785 0.195090 -4.640897
v 0.707107 -0.707107 -4.640897
v -0.923879 0.382684 -4.640897
v 0.555570 -0.831470 -4.640897
v -0.831470 0.555570 -4.640897
v 0.382684 -0.923880 -4.640897
v 0.195090 0.980785 -4.640897
v -0.707107 0.707107 -4.640897
v 0.195090 -0.980785 -4.640897
v 0.382683 0.923880 -4.640897
v -0.555570 0.831470 -4.640897
v 0.000000 1.000000 -7.641698
v 0.000000 0.705295 -16.864155
v 0.000000 0.913683 -12.254858
v 0.137596 0.691743 -16.864155
v 0.195090 0.980785 -7.641698
v 0.178251 0.896127 -12.254858
v 0.269905 0.651608 -16.864155
v 0.382683 0.923880 -7.641698
v 0.349651 0.844133 -12.254858
v 0.391841 0.586431 -16.864155
v 0.555570 0.831470 -7.641699
v 0.507615 0.759699 -12.254858
v 0.498719 0.498719 -16.864155
v 0.707107 0.707107 -7.641698
v 0.646071 0.646071 -12.254858
v 0.586431 0.391841 -16.864155
v 0.831470 0.555570 -7.641698
v 0.759699 0.507615 -12.254858
v 0.651608 0.269905 -16.864155
v 0.923879 0.382683 -7.641698
v 0.844133 0.349651 -12.254858
v 0.691743 0.137596 -16.864155
v 0.980785 0.195090 -7.641698
v 0.896127 0.178251 -12.254858
v 0.705295 -0.000000 -16.864155
v 1.000000 -0.000000 -7.641698
v 0.913683 -0.000000 -12.254858
v 0.691743 -0.137596 -16.864155
v 0.980785 -0.195090 -7.641698
v 0.896127 -0.178251 -12.254858
v 0.651608 -0.269905 -16.864155
v 0.923880 -0.382683 -7.641698
v 0.844133 -0.349651 -12.254858
v 0.586431 -0.391841 -16.864155
v 0.831470 -0.555570 -7.641698
v 0.759699 -0.507615 -12.254858
v 0.498719 -0.498719 -16.864155
v 0.707107 -0.707107 -7.641698
v 0.646071 -0.646071 -12.254858
v 0.391841 -0.586431 -16.864155
v 0.555570 -0.831470 -7.641698
v 0.507615 -0.759700 -12.254858
v 0.269905 -0.651608 -16.864155
v 0.382684 -0.923880 -7.641698
v 0.349651 -0.844133 -12.254858
v 0.137596 -0.691743 -16.864155
v 0.195090 -0.980785 -7.641698
v 0.178251 -0.896127 -12.254858
v -0.000000 -0.705295 -16.864155
v -0.000000 -1.000000 -7.641699
v -0.000000 -0.913683 -12.254858
v -0.137596 -0.691743 -16.864155
v -0.195090 -0.980785 -7.641698
v -0.178251 -0.896127 -12.254858
v -0.269905 -0.651608 -16.864155
v -0.382683 -0.923880 -7.641698
v -0.349651 -0.844133 -12.254858
v -0.391841 -0.586431 -16.864155
v -0.555570 -0.831470 -7.641698
v -0.507615 -0.759699 -12.254858
v -0.498719 -0.498719 -16.864155
v -0.707107 -0.707107 -7.641698
v -0.646071 -0.646071 -12.254858
v -0.586431 -0.391841 -16.864155
v -0.831469 -0.555570 -7.641698
v -0.759699 -0.507615 -12.254858
v -0.651608 -0.269905 -16.864155
v -0.923879 -0.382684 -7.641698
v -0.844133 -0.349651 -12.254858
v -0.691743 -0.137596 -16.864155
v -0.980785 -0.195090 -7.641698
v -0.896127 -0.178251 -12.254858
v -0.705295 0.000000 -16.864155
v -1.000000 0.000000 -7.641698
v -0.913683 0.000000 -12.254858
v -0.691743 0.137596 -16.864155
v -0.980785 0.195090 -7.641698
v -0.896127 0.178251 -12.254858
v -0.651608 0.269905 -16.864155
v -0.923879 0.382684 -7.641698
v -0.844133 0.349651 -12.254858
v -0.586431 0.391841 -16.864155
v -0.831470 0.555570 -7.641698
v -0.759700 0.507615 -12.254858
v -0.498719 0.498719 -16.864155
v -0.707107 0.707107 -7.641698
v -0.646071 0.646071 -12.254858
v -0.391841 0.586431 -16.864155
v -0.555570 0.831470 -7.641698
v -0.507615 0.759699 -12.254858
v -0.269905 0.651608 -16.864155
v -0.382683 0.923880 -7.641699
v -0.349651 0.844133 -12.254858
v -0.137596 0.691743 -16.864155
v -0.195090 0.980785 -7.641698
v -0.178251 0.896127 -12.254858
vt 0.726772 0.545703
vt 0.726708 0.523560
vt 0.995316 0.514810
vt 0.995351 0.531831
vt 0.729014 0.258468
vt 0.729461 0.236512
vt 0.997042 0.293621
vt 0.996765 0.310621
vt 0.726875 0.567840
vt 0.995411 0.548851
vt 0.728605 0.280456
vt 0.996513 0.327624
vt 0.204025 0.036410
vt 0.204093 0.005289
vt 0.334631 0.011654
vt 0.334323 0.042637
vt 0.727018 0.589971
vt 0.995495 0.565870
vt 0.728236 0.302471
vt 0.996285 0.344631
vt 0.727200 0.612092
vt 0.995603 0.582887
vt 0.727906 0.324512
vt 0.996081 0.361640
vt 0.727421 0.634200
vt 0.995736 0.599903
vt 0.727616 0.346575
vt 0.995901 0.378652
vt 0.727682 0.656293
vt 0.995892 0.616916
vt 0.727365 0.368659
vt 0.995745 0.395666
vt 0.727982 0.678366
vt 0.996073 0.633927
vt 0.727153 0.390759
vt 0.995614 0.412683
vt 0.728323 0.700419
vt 0.996279 0.650935
vt 0.726980 0.412873
vt 0.995503 0.429702
vt 0.728702 0.722449
vt 0.996508 0.667940
vt 0.726847 0.434999
vt 0.995417 0.446723
vt 0.729122 0.744450
vt 0.996761 0.684942
vt 0.726753 0.457133
vt 0.995355 0.463744
vt 0.729581 0.766423
vt 0.997038 0.701940
vt 0.726699 0.479273
vt 0.995318 0.480766
vt 0.731813 0.853948
vt 0.731197 0.832127
vt 0.998013 0.752910
vt 0.998386 0.769891
vt 0.730080 0.788361
vt 0.997339 0.718934
vt 0.726684 0.501416
vt 0.995305 0.497788
vt 0.729949 0.214591
vt 0.730475 0.192708
vt 0.997666 0.259633
vt 0.997342 0.276625
vt 0.730619 0.810265
vt 0.997664 0.735924
vt 0.203441 0.377735
vt 0.203472 0.346761
vt 0.332273 0.349417
vt 0.332177 0.379901
vt 0.203608 0.811400
vt 0.203562 0.780380
vt 0.332726 0.776173
vt 0.332906 0.806805
vt 0.203416 0.408703
vt 0.332100 0.410367
vt 0.203659 0.842432
vt 0.333105 0.837481
vt 0.203396 0.439667
vt 0.332043 0.440820
vt 0.203950 0.997816
vt 0.203888 0.966712
vt 0.334093 0.960729
vt 0.334391 0.991692
vt 0.203712 0.873479
vt 0.333324 0.868207
vt 0.203382 0.470627
vt 0.332006 0.471265
vt 0.203957 0.067512
vt 0.334030 0.073548
vt 0.203769 0.904540
vt 0.333561 0.898986
vt 0.203374 0.501587
vt 0.331989 0.501706
vt 0.203890 0.098596
vt 0.333757 0.104394
vt 0.203828 0.935618
vt 0.333818 0.929825
vt 0.203372 0.532546
vt 0.331992 0.532146
vt 0.203825 0.129664
vt 0.333503 0.135178
vt 0.203376 0.563506
vt 0.332014 0.562590
vt 0.203763 0.160716
vt 0.333268 0.165908
vt 0.731041 0.170866
vt 0.998014 0.242644
vt 0.203386 0.594469
vt 0.332057 0.593043
vt 0.203704 0.191753
vt 0.333053 0.196589
vt 0.203402 0.625435
vt 0.332119 0.623508
vt 0.203649 0.222777
vt 0.332858 0.227225
vt 0.203423 0.656408
vt 0.332201 0.653990
vt 0.203598 0.253789
vt 0.332682 0.257821
vt 0.203450 0.687387
vt 0.332303 0.684492
vt 0.203551 0.284789
vt 0.332526 0.288382
vt 0.203483 0.718374
vt 0.332424 0.715021
vt 0.203509 0.315779
vt 0.332390 0.318913
vt 0.203520 0.749372
vt 0.332565 0.745580
vt 0.001563 0.936773
vt 0.001549 0.905653
vt 0.001710 0.096661
vt 0.001732 0.065548
vt 0.001510 0.501130
vt 0.001517 0.470017
vt 0.001540 0.874531
vt 0.001755 0.034435
vt 0.001526 0.438904
vt 0.001531 0.843411
vt 0.001778 0.003321
vt 0.001536 0.407790
vt 0.001523 0.812291
vt 0.001548 0.376678
vt 0.001515 0.781172
vt 0.001561 0.345565
vt 0.001509 0.750054
vt 0.001576 0.314452
vt 0.001505 0.718936
vt 0.001592 0.283339
vt 0.001501 0.687819
vt 0.001609 0.252226
vt 0.001499 0.656703
vt 0.001627 0.221114
vt 0.001498 0.625588
vt 0.001647 0.190001
vt 0.001499 0.594473
vt 0.001667 0.158888
vt 0.001501 0.563358
vt 0.001590 0.999014
vt 0.001576 0.967893
vt 0.001688 0.127775
vt 0.001505 0.532244
vt 0.533806 0.055694
vt 0.533096 0.083790
vt 0.731649 0.149077
vt 0.532430 0.111846
vt 0.531812 0.139856
vt 0.531242 0.167827
vt 0.530720 0.195762
vt 0.530244 0.223664
vt 0.529815 0.251535
vt 0.529431 0.279381
vt 0.529092 0.307202
vt 0.528799 0.335004
vt 0.528550 0.362786
vt 0.528345 0.390556
vt 0.528184 0.418314
vt 0.528068 0.446065
vt 0.527995 0.473809
vt 0.527966 0.501552
vt 0.527980 0.529295
vt 0.528039 0.557043
vt 0.528141 0.584798
vt 0.528287 0.612563
vt 0.528477 0.640341
vt 0.528711 0.668136
vt 0.528989 0.695950
vt 0.529313 0.723787
vt 0.529681 0.751649
vt 0.530095 0.779541
vt 0.530554 0.807463
vt 0.531061 0.835423
vt 0.531614 0.863420
vt 0.532214 0.891460
vt 0.532863 0.919546
vt 0.533566 0.947690
vt 0.998386 0.225651
vn 0.3821 0.9225 0.0544
vn 0.1948 0.9793 0.0544
vn 0.1947 0.9788 0.0638
vn 0.3819 0.9220 0.0638
vn -0.8302 -0.5547 0.0544
vn -0.7060 -0.7060 0.0544
vn -0.7056 -0.7056 0.0638
vn -0.8298 -0.5544 0.0638
vn 0.5547 0.8302 0.0544
vn 0.5544 0.8298 0.0638
vn -0.9225 -0.3821 0.0544
vn -0.9220 -0.3819 0.0638
vn -0.1951 -0.9808 0.0000
vn 0.0000 -1.0000 0.0000
vn 0.0000 -0.9999 0.0093
vn -0.1951 -0.9807 0.0093
vn 0.7060 0.7060 0.0544
vn 0.7056 0.7056 0.0638
vn -0.9793 -0.1948 0.0544
vn -0.9788 -0.1947 0.0638
vn 0.8302 0.5547 0.0544
vn 0.8298 0.5544 0.0638
vn -0.9985 0.0000 0.0544
vn -0.9980 0.0000 0.0638
vn 0.9225 0.3821 0.0544
vn 0.9220 0.3819 0.0638
vn -0.9793 0.1948 0.0544
vn -0.9788 0.1947 0.0638
vn 0.9793 0.1948 0.0544
vn 0.9788 0.1947 0.0638
vn -0.9225 0.3821 0.0544
vn -0.9220 0.3819 0.0638
vn 0.9985 0.0000 0.0544
vn 0.9980 0.0000 0.0638
vn -0.8302 0.5547 0.0544
vn -0.8298 0.5544 0.0638
vn 0.9793 -0.1948 0.0544
vn 0.9788 -0.1947 0.0638
vn -0.7060 0.7060 0.0544
vn -0.7056 0.7056 0.0638
vn 0.9225 -0.3821 0.0544
vn 0.9220 -0.3819 0.0638
vn -0.5547 0.8302 0.0544
vn -0.5544 0.8298 0.0638
vn 0.8302 -0.5547 0.0544
vn 0.8298 -0.5544 0.0638
vn -0.3821 0.9225 0.0544
vn -0.3819 0.9220 0.0638
vn 0.7060 -0.7060 0.0544
vn 0.7056 -0.7056 0.0638
vn -0.1948 0.9793 0.0544
vn -0.1947 0.9788 0.0638
vn 0.0000 -0.9985 0.0544
vn 0.1948 -0.9793 0.0544
vn 0.1947 -0.9788 0.0638
vn 0.0000 -0.9980 0.0638
vn 0.5547 -0.8302 0.0544
vn 0.5544 -0.8298 0.0638
vn 0.0000 0.9985 0.0544
vn 0.0000 0.9980 0.0638
vn -0.5547 -0.8302 0.0544
vn -0.3821 -0.9225 0.0544
vn -0.3819 -0.9220 0.0638
vn -0.5544 -0.8298 0.0638
vn 0.3821 -0.9225 0.0544
vn 0.3819 -0.9220 0.0638
vn -0.7071 0.7071 0.0000
vn -0.8314 0.5556 0.0000
vn -0.8314 0.5555 0.0093
vn -0.7071 0.7071 0.0093
vn 0.9239 -0.3827 0.0000
vn 0.9808 -0.1951 0.0000
vn 0.9807 -0.1951 0.0093
vn 0.9238 -0.3826 0.0093
vn -0.5556 0.8314 0.0000
vn -0.5555 0.8314 0.0093
vn 0.8314 -0.5556 0.0000
vn 0.8314 -0.5555 0.0093
vn -0.3827 0.9239 0.0000
vn -0.3826 0.9238 0.0093
vn 0.1951 -0.9808 0.0000
vn 0.1951 -0.9807 0.0093
vn 0.7071 -0.7071 0.0000
vn 0.7071 -0.7071 0.0093
vn -0.1951 0.9808 0.0000
vn -0.1951 0.9807 0.0093
vn -0.3827 -0.9239 0.0000
vn -0.3826 -0.9238 0.0093
vn 0.5556 -0.8314 0.0000
vn 0.5555 -0.8314 0.0093
vn 0.0000 1.0000 0.0000
vn 0.0000 0.9999 0.0093
vn -0.5556 -0.8314 0.0000
vn -0.5555 -0.8314 0.0093
vn 0.3827 -0.9239 0.0000
vn 0.3826 -0.9238 0.0093
vn 0.1951 0.9808 0.0000
vn 0.1951 0.9807 0.0093
vn -0.7071 -0.7071 0.0000
vn -0.7071 -0.7071 0.0093
vn 0.3827 0.9239 0.0000
vn 0.3826 0.9238 0.0093
vn -0.8314 -0.5556 0.0000
vn -0.8314 -0.5555 0.0093
vn -0.1948 -0.9793 0.0544
vn -0.1947 -0.9788 0.0638
vn 0.5556 0.8314 0.0000
vn 0.5555 0.8314 0.0093
vn -0.9239 -0.3827 0.0000
vn -0.9238 -0.3826 0.0093
vn 0.7071 0.7071 0.0000
vn 0.7071 0.7071 0.0093
vn -0.9808 -0.1951 0.0000
vn -0.9807 -0.1951 0.0093
vn 0.8314 0.5556 0.0000
vn 0.8314 0.5555 0.0093
vn -1.0000 0.0000 0.0000
vn -0.9999 0.0000 0.0093
vn 0.9239 0.3827 0.0000
vn 0.9238 0.3826 0.0093
vn -0.9808 0.1951 0.0000
vn -0.9807 0.1951 0.0093
vn 0.9808 0.1951 0.0000
vn 0.9807 0.1951 0.0093
vn -0.9239 0.3827 0.0000
vn -0.9238 0.3826 0.0093
vn 1.0000 0.0000 0.0000
vn 0.9999 0.0000 0.0093
vn 0.0000 -0.9995 0.0319
vn -0.1950 -0.9803 0.0319
vn -0.3825 -0.9234 0.0319
vn -0.5553 -0.8310 0.0319
vn -0.7067 -0.7067 0.0319
vn -0.8310 -0.5553 0.0319
vn -0.9234 -0.3825 0.0319
vn -0.9803 -0.1950 0.0319
vn -0.9995 0.0000 0.0319
vn -0.9803 0.1950 0.0319
vn -0.9234 0.3825 0.0319
vn -0.8310 0.5553 0.0319
vn -0.7067 0.7067 0.0319
vn -0.5553 0.8310 0.0319
vn -0.3825 0.9234 0.0319
vn -0.1950 0.9803 0.0319
vn 0.0000 0.9995 0.0319
vn 0.1950 0.9803 0.0319
vn 0.3825 0.9234 0.0319
vn 0.5553 0.8310 0.0319
vn 0.7067 0.7067 0.0319
vn 0.8310 0.5553 0.0319
vn 0.9234 0.3825 0.0319
vn 0.9803 0.1950 0.0319
vn 0.9995 0.0000 0.0319
vn 0.9803 -0.1950 0.0319
vn 0.9234 -0.3825 0.0319
vn 0.8310 -0.5553 0.0319
vn 0.7067 -0.7067 0.0319
vn 0.5553 -0.8310 0.0319
vn 0.3825 -0.9234 0.0319
vn 0.1950 -0.9803 0.0319
usemtl None
s 1
f 151/1/1 148/2/2 50/3/3 51/4/4
f 112/5/5 109/6/6 37/7/7 38/8/8
f 154/9/9 151/1/1 51/4/4 52/10/10
f 115/11/11 112/5/5 38/8/8 39/12/12
f 92/13/13 73/14/14 97/15/15 101/16/16
f 157/17/17 154/9/9 52/10/10 53/18/18
f 118/19/19 115/11/11 39/12/12 40/20/20
f 160/21/21 157/17/17 53/18/18 54/22/22
f 121/23/23 118/19/19 40/20/20 41/24/24
f 163/25/25 160/21/21 54/22/22 55/26/26
f 124/27/27 121/23/23 41/24/24 42/28/28
f 166/29/29 163/25/25 55/26/26 56/30/30
f 127/31/31 124/27/27 42/28/28 43/32/32
f 169/33/33 166/29/29 56/30/30 57/34/34
f 130/35/35 127/31/31 43/32/32 44/36/36
f 172/37/37 169/33/33 57/34/34 58/38/38
f 133/39/39 130/35/35 44/36/36 45/40/40
f 175/41/41 172/37/37 58/38/38 59/42/42
f 136/43/43 133/39/39 45/40/40 46/44/44
f 178/45/45 175/41/41 59/42/42 60/46/46
f 139/47/47 136/43/43 46/44/44 47/48/48
f 181/49/49 178/45/45 60/46/46 61/50/50
f 142/51/51 139/47/47 47/48/48 48/52/52
f 98/53/53 190/54/54 64/55/55 33/56/56
f 184/57/57 181/49/49 61/50/50 62/58/58
f 145/59/59 142/51/51 48/52/52 49/60/60
f 106/61/61 103/62/62 35/63/63 36/64/64
f 187/65/65 184/57/57 62/58/58 63/66/66
f 148/2/2 145/59/59 49/60/60 50/3/3
f 109/6/6 106/61/61 36/64/64 37/7/7
f 190/54/54 187/65/65 63/66/66 64/55/55
f 87/67/67 85/68/68 131/69/69 134/70/70
f 88/71/71 86/72/72 173/73/73 176/74/74
f 89/75/75 87/67/67 134/70/70 137/76/76
f 90/77/77 88/71/71 176/74/74 179/78/78
f 91/79/79 89/75/75 137/76/76 140/80/80
f 73/81/14 70/82/81 191/83/82 97/84/15
f 93/85/83 90/77/77 179/78/78 182/86/84
f 94/87/85 91/79/79 140/80/80 143/88/86
f 95/89/87 92/13/13 101/16/16 104/90/88
f 96/91/89 93/85/83 182/86/84 185/92/90
f 65/93/91 94/87/85 143/88/86 146/94/92
f 67/95/93 95/89/87 104/90/88 107/96/94
f 69/97/95 96/91/89 185/92/90 188/98/96
f 66/99/97 65/93/91 146/94/92 149/100/98
f 68/101/99 67/95/93 107/96/94 110/102/100
f 70/82/81 69/97/95 188/98/96 191/83/82
f 71/103/101 66/99/97 149/100/98 152/104/102
f 72/105/103 68/101/99 110/102/100 113/106/104
f 103/62/62 100/107/105 34/108/106 35/63/63
f 74/109/107 71/103/101 152/104/102 155/110/108
f 75/111/109 72/105/103 113/106/104 116/112/110
f 76/113/111 74/109/107 155/110/108 158/114/112
f 77/115/113 75/111/109 116/112/110 119/116/114
f 78/117/115 76/113/111 158/114/112 161/118/116
f 79/119/117 77/115/113 119/116/114 122/120/118
f 80/121/119 78/117/115 161/118/116 164/122/120
f 81/123/121 79/119/117 122/120/118 125/124/122
f 82/125/123 80/121/119 164/122/120 167/126/124
f 83/127/125 81/123/121 125/124/122 128/128/126
f 84/129/127 82/125/123 167/126/124 170/130/128
f 85/68/68 83/127/125 128/128/126 131/69/69
f 86/72/72 84/129/127 170/130/128 173/73/73
f 31/131/95 30/132/89 96/91/89 69/97/95
f 4/133/93 3/134/87 95/89/87 67/95/93
f 17/135/91 16/136/85 94/87/85 65/93/91
f 30/132/89 29/137/83 93/85/83 96/91/89
f 3/134/87 2/138/13 92/13/13 95/89/87
f 16/136/85 15/139/79 91/79/79 94/87/85
f 29/137/83 28/140/77 90/77/77 93/85/83
f 2/138/13 1/141/14 73/14/14 92/13/13
f 15/139/79 14/142/75 89/75/75 91/79/79
f 28/140/77 27/143/71 88/71/71 90/77/77
f 14/142/75 13/144/67 87/67/67 89/75/75
f 27/143/71 26/145/72 86/72/72 88/71/71
f 13/144/67 12/146/68 85/68/68 87/67/67
f 26/145/72 25/147/127 84/129/127 86/72/72
f 12/146/68 11/148/125 83/127/125 85/68/68
f 25/147/127 24/149/123 82/125/123 84/129/127
f 11/148/125 10/150/121 81/123/121 83/127/125
f 24/149/123 23/151/119 80/121/119 82/125/123
f 10/150/121 9/152/117 79/119/117 81/123/121
f 23/151/119 22/153/115 78/117/115 80/121/119
f 9/152/117 8/154/113 77/115/113 79/119/117
f 22/153/115 21/155/111 76/113/111 78/117/115
f 8/154/113 7/156/109 75/111/109 77/115/113
f 21/155/111 20/157/107 74/109/107 76/113/111
f 7/156/109 6/158/103 72/105/103 75/111/109
f 20/157/107 19/159/101 71/103/101 74/109/107
f 1/160/14 32/161/81 70/82/81 73/81/14
f 6/158/103 5/162/99 68/101/99 72/105/103
f 19/159/101 18/163/97 66/99/97 71/103/101
f 32/161/81 31/131/95 69/97/95 70/82/81
f 5/162/99 4/133/93 67/95/93 68/101/99
f 18/163/97 17/135/91 65/93/91 66/99/97
f 101/16/16 97/15/15 99/164/129 102/165/130
f 102/165/130 99/164/129 98/166/53 100/107/105
f 104/90/88 101/16/16 102/165/130 105/167/131
f 105/167/131 102/165/130 100/107/105 103/62/62
f 107/96/94 104/90/88 105/167/131 108/168/132
f 108/168/132 105/167/131 103/62/62 106/61/61
f 110/102/100 107/96/94 108/168/132 111/169/133
f 111/169/133 108/168/132 106/61/61 109/6/6
f 113/106/104 110/102/100 111/169/133 114/170/134
f 114/170/134 111/169/133 109/6/6 112/5/5
f 116/112/110 113/106/104 114/170/134 117/171/135
f 117/171/135 114/170/134 112/5/5 115/11/11
f 119/116/114 116/112/110 117/171/135 120/172/136
f 120/172/136 117/171/135 115/11/11 118/19/19
f 122/120/118 119/116/114 120/172/136 123/173/137
f 123/173/137 120/172/136 118/19/19 121/23/23
f 125/124/122 122/120/118 123/173/137 126/174/138
f 126/174/138 123/173/137 121/23/23 124/27/27
f 128/128/126 125/124/122 126/174/138 129/175/139
f 129/175/139 126/174/138 124/27/27 127/31/31
f 131/69/69 128/128/126 129/175/139 132/176/140
f 132/176/140 129/175/139 127/31/31 130/35/35
f 134/70/70 131/69/69 132/176/140 135/177/141
f 135/177/141 132/176/140 130/35/35 133/39/39
f 137/76/76 134/70/70 135/177/141 138/178/142
f 138/178/142 135/177/141 133/39/39 136/43/43
f 140/80/80 137/76/76 138/178/142 141/179/143
f 141/179/143 138/178/142 136/43/43 139/47/47
f 143/88/86 140/80/80 141/179/143 144/180/144
f 144/180/144 141/179/143 139/47/47 142/51/51
f 146/94/92 143/88/86 144/180/144 147/181/145
f 147/181/145 144/180/144 142/51/51 145/59/59
f 149/100/98 146/94/92 147/181/145 150/182/146
f 150/182/146 147/181/145 145/59/59 148/2/2
f 152/104/102 149/100/98 150/182/146 153/183/147
f 153/183/147 150/182/146 148/2/2 151/1/1
f 155/110/108 152/104/102 153/183/147 156/184/148
f 156/184/148 153/183/147 151/1/1 154/9/9
f 158/114/112 155/110/108 156/184/148 159/185/149
f 159/185/149 156/184/148 154/9/9 157/17/17
f 161/118/116 158/114/112 159/185/149 162/186/150
f 162/186/150 159/185/149 157/17/17 160/21/21
f 164/122/120 161/118/116 162/186/150 165/187/151
f 165/187/151 162/186/150 160/21/21 163/25/25
f 167/126/124 164/122/120 165/187/151 168/188/152
f 168/188/152 165/187/151 163/25/25 166/29/29
f 170/130/128 167/126/124 168/188/152 171/189/153
f 171/189/153 168/188/152 166/29/29 169/33/33
f 173/73/73 170/130/128 171/189/153 174/190/154
f 174/190/154 171/189/153 169/33/33 172/37/37
f 176/74/74 173/73/73 174/190/154 177/191/155
f 177/191/155 174/190/154 172/37/37 175/41/41
f 179/78/78 176/74/74 177/191/155 180/192/156
f 180/192/156 177/191/155 175/41/41 178/45/45
f 182/86/84 179/78/78 180/192/156 183/193/157
f 183/193/157 180/192/156 178/45/45 181/49/49
f 185/92/90 182/86/84 183/193/157 186/194/158
f 186/194/158 183/193/157 181/49/49 184/57/57
f 188/98/96 185/92/90 186/194/158 189/195/159
f 189/195/159 186/194/158 184/57/57 187/65/65
f 191/83/82 188/98/96 189/195/159 192/196/160
f 192/196/160 189/195/159 187/65/65 190/54/54
f 97/84/15 191/83/82 192/196/160 99/197/129
f 99/197/129 192/196/160 190/54/54 98/53/53
f 100/107/105 98/166/53 33/198/56 34/108/106
